<?xml version="1.0" encoding="utf-8"?>
<!-- Generator: Adobe Illustrator 26.3.1, SVG Export Plug-In . SVG Version: 6.00 Build 0)  -->
<svg version="1.1" id="Layer_1" xmlns="http://www.w3.org/2000/svg" xmlns:xlink="http://www.w3.org/1999/xlink" x="0px" y="0px"
	 viewBox="0 0 412.1 85.6" style="enable-background:new 0 0 412.1 85.6;" xml:space="preserve">
<style type="text/css">
	.st0{fill:#141515;}
	.st1{fill:#FF2B15;}
	.st2{fill:#383838;}
	.st3{font-family:'OpenSans-Bold';}
	.st4{font-size:23px;}
</style>
<g id="a">
</g>
<g id="c">
	<g>
		<path class="st0" d="M6.8,0c1.9,0,3.4,0.7,4.8,2c1.3,1.3,2,2.9,2,4.8s-0.7,3.4-2,4.7s-2.9,2.1-4.8,2.1S3.3,12.9,2,11.5
			S0,8.6,0,6.8C0,4.9,0.7,3.3,2,2S5,0,6.8,0z M12.6,21v44.7h-12V21C0.7,21,12.6,21,12.6,21z"/>
		<path class="st0" d="M263.7,54.5v9.3c-3.7,3-8,3.4-11.5,3.4c-3.8-0.2-7.8-1.7-10.6-4.4c-2.8-2.8-4.3-7-4.3-11.7V31.4H229v-2.8
			l19-20.7h0.7v13h14.7v10.5h-14.7v16c0,0-0.4,6,3.2,8.5C257,59.4,263.7,54.5,263.7,54.5L263.7,54.5z"/>
		<path class="st0" d="M149.5,19.6c-12.8,0.7-15.9,8.5-15.9,8.5l-0.4-7.1h-10.8v64.7h11.3l0.1-27.5c1.9,3,6.9,7.2,13.4,8.3
			c3.4,0.6,9-0.1,12.8-2.1s6.2-4.9,8.1-8.2c1.9-3.4,2.9-7.3,2.9-11.8s-1.2-9.9-1.9-11.6C167.8,29.3,163.7,19.2,149.5,19.6
			L149.5,19.6z M146.3,56.4c-7,0-12.7-5.7-12.7-12.8s5.7-12.8,12.7-12.8S159,36.6,159,43.6S153.3,56.4,146.3,56.4z"/>
		<path class="st0" d="M94,57.3c-3.6-0.1-8.2-0.3-14.6-3.9l-2.1,8.4c2.2,1.4,4.2,2.4,8.4,3.6s6.7,1.3,9.9,1.3c5.1,0,10.7-1,13.7-3.5
			s4.6-5.5,4.6-9.8c0-3.1-1-6.2-3.1-8.4c-2.1-2.2-6.9-4.6-13.8-5.7c-3.6-0.8-5.7-2-6.5-2.7S89,34.7,89,34c0-1.2,0.5-2.1,1.4-2.7
			s2.2-1.7,6.2-1.9c0,0,4.7-0.4,11,3.6l4.1-7c-7.3-5.9-17.8-5.5-17.8-5.5c-2.2,0.1-4.5,0.1-7.9,1.5c-2.3,0.9-4.4,2.2-6,4.1
			c-1.5,1.8-2.3,4.7-2.3,7.2c0,2.8,0.6,5.7,2.3,7.8c1.7,2,4,3.6,8.1,5C94,47.6,96.5,48,98.5,49c0,0,2.8,1.2,3,3.2
			S100.8,57.5,94,57.3L94,57.3z"/>
		<path class="st0" d="M48.6,19.8c-5.8,0.3-10.6,2.6-13.5,6V1.2H23.8v62.2c2.1,1,9.1,3.6,23.8,3.2c13.2-0.3,23-10.1,23.2-23.4
			C71,29.4,61.8,19.2,48.6,19.8L48.6,19.8z M45.3,57.2c-4,0-7.7-0.4-10.2-3.3V35.7c2.3-3.4,6.1-5.8,10.2-5.8
			c7.5,0,13.6,6.1,13.6,13.7S52.8,57.2,45.3,57.2L45.3,57.2z"/>
	</g>
	<path class="st1" d="M201.3,56.8c-7,0-12.7-6.3-12.7-13.3s5.7-12.7,12.7-12.7S214,36.5,214,43.5c0,3.3-1.3,6.5-3.4,8.9l9,8.7
		c0.6-0.8,1.2-1.7,1.8-2.6c0,0,2.2-3.1,2.9-6.1c1.1-4.3,1.1-5.6,1.1-8.6c0-13.4-10.8-24.3-24.1-24.3s-24.1,10.9-24.1,24.3
		s10.1,23.6,22.9,24.3c-1.2,2.5-3.8,6.7-8.8,12.6c0,0,15.4-4.9,26.1-16.9l-9.4-9.1C206,56,203.7,56.8,201.3,56.8L201.3,56.8z"/>
</g>
<text transform="matrix(1 0 0 1 276 65.7)" class="st2 st3 st4">SINCE 2006</text>
</svg>
