<?xml version="1.0" encoding="utf-8"?>
<!-- Generator: Adobe Illustrator 26.3.1, SVG Export Plug-In . SVG Version: 6.00 Build 0)  -->
<svg version="1.1" id="Layer_1" xmlns="http://www.w3.org/2000/svg" xmlns:xlink="http://www.w3.org/1999/xlink" x="0px" y="0px"
	 viewBox="0 0 284 117.3" style="enable-background:new 0 0 284 117.3;" xml:space="preserve">
<style type="text/css">
	.st0{fill:#141515;}
	.st1{fill:#EE3F24;}
	.st2{enable-background:new    ;}
	.st3{fill:#333333;}
</style>
<g id="a">
</g>
<g id="b">
	<g id="c">
		<g>
			<path class="st0" d="M6.8,0c1.9,0,3.4,0.7,4.8,2c1.3,1.3,2,2.9,2,4.8s-0.7,3.4-2,4.7s-2.9,2.1-4.8,2.1S3.3,12.9,2,11.5
				S0,8.6,0,6.8C0,4.9,0.7,3.3,2,2S5,0,6.8,0z M12.6,21v44.7h-12V21C0.7,21,12.6,21,12.6,21z"/>
			<path class="st0" d="M263.7,54.5v9.3c-3.7,3-8,3.4-11.5,3.4c-3.8-0.2-7.8-1.7-10.6-4.4c-2.8-2.8-4.3-7-4.3-11.7V31.4H229v-2.8
				l19-20.7h0.7v13h14.7v10.5h-14.7v16c0,0-0.4,6,3.2,8.5C257,59.4,263.7,54.5,263.7,54.5L263.7,54.5z"/>
			<path class="st0" d="M149.5,19.6c-12.8,0.7-15.9,8.5-15.9,8.5l-0.4-7.1h-10.8v64.7h11.3l0.1-27.5c1.9,3,6.9,7.2,13.4,8.4
				c3.4,0.6,9-0.1,12.8-2.1s6.2-4.9,8.1-8.2c1.9-3.4,2.9-7.3,2.9-11.8s-1.2-9.9-1.9-11.6C167.8,29.3,163.7,19.2,149.5,19.6
				L149.5,19.6z M146.3,56.4c-7,0-12.7-5.7-12.7-12.8s5.7-12.8,12.7-12.8S159,36.6,159,43.6S153.3,56.4,146.3,56.4z"/>
			<path class="st0" d="M94,57.3c-3.6-0.1-8.2-0.3-14.6-3.9l-2.1,8.4c2.2,1.4,4.2,2.4,8.4,3.6s6.7,1.3,9.9,1.3
				c5.1,0,10.7-1,13.7-3.5s4.6-5.5,4.6-9.8c0-3.1-1-6.2-3.1-8.4c-2.1-2.2-6.9-4.6-13.8-5.7c-3.6-0.8-5.7-2-6.5-2.7S89,34.7,89,34
				c0-1.2,0.5-2.1,1.4-2.7s2.2-1.7,6.2-1.9c0,0,4.7-0.4,11,3.6l4.1-6.9c-7.3-5.9-17.8-5.5-17.8-5.5c-2.2,0.1-4.5,0.1-7.9,1.5
				c-2.3,0.9-4.4,2.2-6,4.1c-1.5,1.8-2.3,4.7-2.3,7.2c0,2.8,0.6,5.7,2.3,7.8c1.7,2,4,3.6,8.1,5c5.9,1.5,8.4,1.9,10.4,2.9
				c0,0,2.8,1.2,3,3.2S100.8,57.5,94,57.3L94,57.3z"/>
			<path class="st0" d="M48.6,19.8c-5.8,0.3-10.6,2.6-13.5,6V1.2H23.8v62.2c2.1,1,9.1,3.6,23.8,3.2c13.2-0.3,23-10.1,23.2-23.4
				C71,29.4,61.8,19.2,48.6,19.8L48.6,19.8z M45.3,57.2c-4,0-7.7-0.4-10.2-3.3V35.7c2.3-3.4,6.1-5.8,10.2-5.8
				c7.5,0,13.6,6.1,13.6,13.7S52.8,57.2,45.3,57.2L45.3,57.2z"/>
		</g>
		<path class="st1" d="M201.3,56.8c-7,0-12.7-6.3-12.7-13.3s5.7-12.7,12.7-12.7S214,36.5,214,43.5c0,3.3-1.3,6.5-3.4,8.9l9,8.7
			c0.6-0.8,1.2-1.7,1.8-2.6c0,0,2.2-3.1,2.9-6.1c1.1-4.3,1.1-5.6,1.1-8.6c0-13.4-10.8-24.3-24.1-24.3s-24.1,10.9-24.1,24.3
			s10.1,23.6,22.9,24.3c-1.2,2.5-3.8,6.7-8.8,12.6c0,0,15.4-4.9,26.1-16.9l-9.4-9.1C206,56,203.7,56.8,201.3,56.8L201.3,56.8z"/>
		<g class="st2">
			<path class="st3" d="M166.1,104.9c0,1.1-0.4,2-1.2,2.7s-2,1-3.4,1s-2.6-0.2-3.6-0.7v-2c0.6,0.3,1.2,0.5,1.9,0.7
				c0.7,0.2,1.3,0.2,1.8,0.2c0.8,0,1.4-0.2,1.8-0.5c0.4-0.3,0.6-0.7,0.6-1.3c0-0.5-0.2-0.9-0.5-1.2s-1.1-0.7-2.2-1.2
				c-1.2-0.5-2-1-2.5-1.6s-0.7-1.3-0.7-2.2c0-1.1,0.4-1.9,1.1-2.5s1.8-0.9,3.1-0.9c1.2,0,2.5,0.3,3.7,0.8l-0.7,1.7
				c-1.1-0.5-2.2-0.7-3.1-0.7c-0.7,0-1.2,0.1-1.5,0.4c-0.4,0.3-0.5,0.7-0.5,1.2c0,0.3,0.1,0.6,0.2,0.9c0.1,0.2,0.4,0.5,0.7,0.7
				s0.9,0.5,1.7,0.8c0.9,0.4,1.6,0.8,2.1,1.1s0.8,0.7,1,1.2S166.1,104.3,166.1,104.9z"/>
			<path class="st3" d="M169.6,108.4V95.5h2.1v12.8H169.6z"/>
			<path class="st3" d="M186.8,108.4h-2.6l-6.3-10.2h-0.1l0,0.6c0.1,1.1,0.1,2.1,0.1,3v6.7h-1.9V95.5h2.5l6.3,10.2h0.1
				c0-0.1,0-0.6-0.1-1.5s-0.1-1.5-0.1-2v-6.7h1.9V108.4z"/>
			<path class="st3" d="M196.6,97.1c-1.2,0-2.2,0.4-2.8,1.3s-1,2-1,3.5c0,1.6,0.3,2.8,1,3.6s1.6,1.2,2.9,1.2c0.5,0,1.1-0.1,1.6-0.2
				s1-0.2,1.6-0.4v1.8c-1,0.4-2.2,0.6-3.4,0.6c-1.9,0-3.3-0.6-4.3-1.7s-1.5-2.8-1.5-4.9c0-1.3,0.2-2.5,0.7-3.5s1.2-1.8,2.1-2.3
				s2-0.8,3.3-0.8c1.3,0,2.5,0.3,3.6,0.8l-0.8,1.7c-0.4-0.2-0.9-0.4-1.4-0.5C197.7,97.2,197.2,97.1,196.6,97.1z"/>
			<path class="st3" d="M210.8,108.4h-7.3V95.5h7.3v1.8h-5.2v3.5h4.8v1.8h-4.8v4h5.2V108.4z"/>
			<path class="st3" d="M228.1,108.4h-8.7v-1.6l3.3-3.3c1-1,1.6-1.7,1.9-2.1c0.3-0.4,0.6-0.8,0.7-1.2s0.2-0.8,0.2-1.2
				c0-0.6-0.2-1-0.5-1.4s-0.8-0.5-1.4-0.5c-0.5,0-1,0.1-1.4,0.3s-1,0.5-1.6,1l-1.1-1.4c0.7-0.6,1.4-1,2.1-1.3s1.4-0.4,2.2-0.4
				c1.2,0,2.2,0.3,2.9,0.9c0.7,0.6,1.1,1.5,1.1,2.5c0,0.6-0.1,1.1-0.3,1.7s-0.5,1.1-1,1.6c-0.4,0.6-1.1,1.3-2.1,2.2l-2.2,2.2v0.1
				h6.1V108.4z"/>
			<path class="st3" d="M239.3,101.9c0,2.2-0.4,3.9-1.1,5s-1.8,1.6-3.3,1.6c-1.4,0-2.5-0.6-3.3-1.7s-1.1-2.8-1.1-4.9
				c0-2.3,0.4-3.9,1.1-5c0.7-1.1,1.8-1.6,3.3-1.6c1.4,0,2.5,0.6,3.3,1.7S239.3,99.8,239.3,101.9z M232.7,101.9c0,1.8,0.2,3,0.5,3.8
				s0.9,1.1,1.7,1.1s1.4-0.4,1.7-1.1s0.5-2,0.5-3.7c0-1.7-0.2-3-0.5-3.7s-0.9-1.2-1.7-1.2s-1.4,0.4-1.7,1.1S232.7,100.2,232.7,101.9
				z"/>
			<path class="st3" d="M250.6,101.9c0,2.2-0.4,3.9-1.1,5c-0.7,1.1-1.8,1.6-3.3,1.6c-1.4,0-2.5-0.6-3.3-1.7s-1.1-2.8-1.1-4.9
				c0-2.3,0.4-3.9,1.1-5c0.7-1.1,1.8-1.6,3.3-1.6c1.4,0,2.5,0.6,3.3,1.7S250.6,99.8,250.6,101.9z M244,101.9c0,1.8,0.2,3,0.5,3.8
				c0.4,0.8,0.9,1.1,1.7,1.1s1.4-0.4,1.7-1.1c0.4-0.8,0.5-2,0.5-3.7c0-1.7-0.2-3-0.5-3.7c-0.4-0.8-0.9-1.2-1.7-1.2s-1.4,0.4-1.7,1.1
				C244.1,98.9,244,100.2,244,101.9z"/>
			<path class="st3" d="M253.2,102.9c0-5,2-7.5,6.1-7.5c0.6,0,1.2,0,1.6,0.1v1.7c-0.4-0.1-1-0.2-1.5-0.2c-1.4,0-2.4,0.4-3.1,1.1
				s-1.1,1.9-1.1,3.6h0.1c0.3-0.5,0.7-0.8,1.2-1.1c0.5-0.3,1.1-0.4,1.8-0.4c1.2,0,2.1,0.4,2.7,1.1s1,1.7,1,2.9
				c0,1.3-0.4,2.4-1.1,3.2c-0.8,0.8-1.8,1.2-3.1,1.2c-0.9,0-1.7-0.2-2.4-0.7c-0.7-0.4-1.2-1.1-1.6-1.9
				C253.4,105.1,253.2,104.1,253.2,102.9z M257.7,106.8c0.7,0,1.3-0.2,1.6-0.7c0.4-0.5,0.6-1.1,0.6-2c0-0.7-0.2-1.3-0.5-1.7
				c-0.4-0.4-0.9-0.6-1.6-0.6c-0.4,0-0.9,0.1-1.2,0.3s-0.7,0.5-0.9,0.8c-0.2,0.3-0.3,0.7-0.3,1c0,0.8,0.2,1.5,0.7,2.1
				C256.4,106.6,257,106.8,257.7,106.8z"/>
		</g>
	</g>
</g>
</svg>
