<svg width="12" height="12" viewBox="0 0 12 12" fill="none" xmlns="http://www.w3.org/2000/svg">
<path d="M10.4277 6.59918C10.5495 6.72098 10.7062 6.77933 10.8651 6.77933C11.0195 6.77933 11.1799 6.72157 11.302 6.59971C11.5462 6.35986 11.5444 5.96622 11.3026 5.72434L6.60581 1.0276C6.60561 1.0274 6.60541 1.02719 6.60522 1.02699C6.37264 0.790179 5.96434 0.791999 5.72986 1.02648L1.03249 5.72384C0.788559 5.96352 0.790122 6.35672 1.03146 6.59864C1.27132 6.8428 1.66495 6.84106 1.90684 6.59918L6.16728 2.33874L10.4277 6.59918Z" fill="white" stroke="white" stroke-width="0.3"/>
<path d="M10.4277 11.3854C10.5495 11.5072 10.7062 11.5656 10.8651 11.5656C11.0195 11.5656 11.1799 11.5078 11.302 11.386C11.5462 11.1461 11.5444 10.7525 11.3026 10.5106L6.60581 5.81385C6.60561 5.81365 6.60541 5.81345 6.60522 5.81325C6.37264 5.57643 5.96434 5.57825 5.72986 5.81273L1.03249 10.5101C0.788559 10.7498 0.790125 11.143 1.03146 11.3849C1.27132 11.6291 1.66495 11.6273 1.90684 11.3854L6.16728 7.12499L10.4277 11.3854Z" fill="white" stroke="white" stroke-width="0.3"/>
</svg>
