<svg width="37" height="36" viewBox="0 0 37 36" fill="none" xmlns="http://www.w3.org/2000/svg">
<g clip-path="url(#clip0_2_423)">
<path d="M23.125 12.2727L16.9583 18.8182L13.1042 14.7273" stroke="#7C7C7C" stroke-width="2" stroke-linecap="round" stroke-linejoin="round"/>
<path d="M25.5917 27.3519C23.2715 29.7655 20.2036 31.091 16.9583 31.091C10.1596 31.091 4.62501 25.2164 4.62501 18.0001C4.62501 10.7837 10.1596 4.90915 16.9583 4.90915C23.7571 4.90915 28.8292 10.3173 29.2531 17.1328H26.2083L31.2188 23.5882L36.2292 17.1328H33.1073C32.6756 8.05915 25.6071 0.818237 16.9583 0.818237C8.30959 0.818237 0.770844 8.52551 0.770844 18.0001C0.770844 27.4746 8.03209 35.1819 16.9583 35.1819C21.2211 35.1819 25.2448 33.4391 28.2896 30.2728" stroke="#7C7C7C" stroke-width="2" stroke-linecap="round" stroke-linejoin="round"/>
</g>
<defs>
<clipPath id="clip0_2_423">
<rect width="37" height="36" fill="white"/>
</clipPath>
</defs>
</svg>
