<svg width="13" height="11" viewBox="0 0 13 11" fill="none" xmlns="http://www.w3.org/2000/svg">
<path d="M6.6369 10.5925C6.6369 10.5925 12.7213 7.77051 12.7213 3.48183C12.7161 2.78106 12.4656 2.10274 12.0107 1.5577C11.5559 1.01266 10.9237 0.633122 10.2174 0.481101C9.51105 0.32908 8.77236 0.413563 8.12202 0.720747C7.47167 1.02793 6.94812 1.53965 6.6369 2.1723C6.32569 1.53965 5.80214 1.02793 5.15179 0.720747C4.50145 0.413563 3.76276 0.32908 3.05643 0.481101C2.35009 0.633122 1.71787 1.01266 1.26306 1.5577C0.808257 2.10274 0.557758 2.78106 0.55249 3.48183C0.55249 7.77051 6.6369 10.5925 6.6369 10.5925Z" fill="white"/>
</svg>
