<svg width="14" height="13" viewBox="0 0 14 13" fill="none" xmlns="http://www.w3.org/2000/svg">
<path d="M6.63687 12.2044C6.63687 12.2044 12.7213 9.12375 12.7213 4.44208C12.716 3.6771 12.4655 2.93662 12.0107 2.34164C11.5559 1.74666 10.9237 1.33234 10.2174 1.16639C9.51102 1.00044 8.77233 1.09266 8.12199 1.42799C7.47164 1.76332 6.94809 2.32194 6.63687 3.01256C6.32566 2.32194 5.80211 1.76332 5.15176 1.42799C4.50142 1.09266 3.76273 1.00044 3.0564 1.16639C2.35006 1.33234 1.71784 1.74666 1.26303 2.34164C0.808227 2.93662 0.557727 3.6771 0.55246 4.44208C0.55246 9.12375 6.63687 12.2044 6.63687 12.2044Z" fill="white" stroke="#2264D1" stroke-linecap="round" stroke-linejoin="round"/>
</svg>
