<svg width="22" height="23" viewBox="0 0 22 23" fill="none" xmlns="http://www.w3.org/2000/svg">
<path fill-rule="evenodd" clip-rule="evenodd" d="M0.983765 11.8329C0.983765 7.67012 0.983765 5.58873 1.97572 4.08956C2.41868 3.4201 2.992 2.84678 3.66146 2.40382C5.16063 1.41187 7.24202 1.41187 11.4048 1.41187C15.5676 1.41187 17.649 1.41187 19.1482 2.40382C19.8176 2.84678 20.391 3.4201 20.8339 4.08956C21.8259 5.58873 21.8259 7.67012 21.8259 11.8329C21.8259 15.9957 21.8259 18.0771 20.8339 19.5763C20.391 20.2457 19.8176 20.8191 19.1482 21.262C17.649 22.254 15.5676 22.254 11.4048 22.254C7.24202 22.254 5.16063 22.254 3.66146 21.262C2.992 20.8191 2.41868 20.2457 1.97572 19.5763C0.983765 18.0771 0.983765 15.9957 0.983765 11.8329ZM16.7997 11.8332C16.7997 14.8128 14.3843 17.2283 11.4046 17.2283C8.425 17.2283 6.00953 14.8128 6.00953 11.8332C6.00953 8.85355 8.425 6.43808 11.4046 6.43808C14.3843 6.43808 16.7997 8.85355 16.7997 11.8332ZM11.4046 15.403C13.3762 15.403 14.9744 13.8047 14.9744 11.8332C14.9744 9.86164 13.3762 8.26339 11.4046 8.26339C9.43309 8.26339 7.83484 9.86164 7.83484 11.8332C7.83484 13.8047 9.43309 15.403 11.4046 15.403ZM17.0128 7.43471C17.7129 7.43471 18.2805 6.86715 18.2805 6.16702C18.2805 5.46689 17.7129 4.89933 17.0128 4.89933C16.3127 4.89933 15.7451 5.46689 15.7451 6.16702C15.7451 6.86715 16.3127 7.43471 17.0128 7.43471Z" fill="#2264D1"/>
</svg>
