<svg width="38" height="37" viewBox="0 0 38 37" fill="none" xmlns="http://www.w3.org/2000/svg">
<g clip-path="url(#clip0_2_405)">
<path d="M0.774536 22.5737L5.17396 20.887C5.97175 20.5841 6.85473 21.018 7.14906 21.8696L10.5261 30.7943C10.8204 31.654 10.4099 32.612 9.59663 32.9231L3.62487 35.2075" stroke="#7C7C7C" stroke-width="2" stroke-linecap="round" stroke-linejoin="round"/>
<path d="M12.9504 31.3592L19.1313 33.095C20.5022 33.4798 21.9584 33.3652 23.2596 32.7593L35.056 27.3226C36.2643 26.7658 36.76 25.2347 36.1171 24.0229C35.5672 22.9667 34.3434 22.5246 33.29 22.9831L27.3183 25.2511" stroke="#7C7C7C" stroke-width="2" stroke-miterlimit="10" stroke-linecap="round"/>
<path d="M9.57339 20.8952L10.1311 20.5923C12.1062 19.5115 14.4221 19.3559 16.5056 20.1829L23.4843 22.934C24.7545 23.4334 25.4206 24.899 24.9946 26.25C24.5531 27.642 23.128 28.387 21.8035 27.9285L17.1485 26.2992" stroke="#7C7C7C" stroke-width="2" stroke-miterlimit="10" stroke-linecap="round"/>
<path d="M8.52002 17.1943V2.45629C8.52002 1.55563 9.21711 0.818726 10.0691 0.818726H32.531C33.383 0.818726 34.0801 1.55563 34.0801 2.45629V19.6507" stroke="#7C7C7C" stroke-width="2" stroke-linecap="round" stroke-linejoin="round"/>
<path d="M27.8837 4.09384V7.36896L24.3982 5.7314L20.9128 7.36896V0.818726" stroke="#7C7C7C" stroke-width="2" stroke-linecap="round" stroke-linejoin="round"/>
<path d="M30.2073 17.1943H25.5601" stroke="#7C7C7C" stroke-width="2" stroke-linecap="round" stroke-linejoin="round"/>
</g>
<defs>
<clipPath id="clip0_2_405">
<rect width="37.1782" height="36.0263" fill="white"/>
</clipPath>
</defs>
</svg>
