<svg width="46" height="48" viewBox="0 0 46 48" fill="none" xmlns="http://www.w3.org/2000/svg">
<path d="M27 47H34C40.07 47 45 41.95 45 35.75C45 29.55 40.07 24.5 34 24.5H26.45V19L14 27.57L26.45 36.14V30.64H34C36.76 30.64 39 32.93 39 35.75C39 38.57 36.76 40.86 34 40.86H30" stroke="#505056" stroke-width="2" stroke-linecap="round" stroke-linejoin="round"/>
<path d="M41 22V4C41 2.34 39.66 1 38 1H4C2.34 1 1 2.34 1 4V36C1 37.66 2.34 39 4 39H22" stroke="#505056" stroke-width="2" stroke-linecap="round" stroke-linejoin="round"/>
<path d="M34 5V10L29 8L24 10V1" stroke="#505056" stroke-width="2" stroke-linecap="round" stroke-linejoin="round"/>
</svg>
