<?xml version="1.0" encoding="utf-8"?>
<!-- Generator: Adobe Illustrator 26.3.1, SVG Export Plug-In . SVG Version: 6.00 Build 0)  -->
<svg version="1.1" id="Layer_1" xmlns="http://www.w3.org/2000/svg" xmlns:xlink="http://www.w3.org/1999/xlink" x="0px" y="0px"
	 viewBox="0 0 405.4 69.7" style="enable-background:new 0 0 405.4 69.7;" xml:space="preserve">
<style type="text/css">
	.st0{fill:#FFD41D;}
</style>
<g>
	<g>
		<path class="st0" d="M154.3,26.7c-0.3-1.1-1.3-1.8-2.4-1.8L129,24.3l-7.5-21.5c-0.4-1.1-1.4-1.8-2.5-1.8c-1.1,0-2.1,0.7-2.5,1.8
			L109,24.3l-22.8,0.5c-1.1,0-2.1,0.8-2.4,1.8c-0.3,1.1,0,2.2,0.9,2.9l18.1,13.8l-6.5,21.8c-0.3,1.1,0.1,2.2,1,2.9
			c0.9,0.7,2.1,0.7,3,0l18.7-13l18.7,13c0.9,0.6,2.1,0.6,3,0c0.9-0.7,1.3-1.8,1-2.9l-6.5-21.8l18.1-13.8
			C154.2,28.9,154.6,27.7,154.3,26.7z"/>
	</g>
	<g>
		<path class="st0" d="M70.6,26.7c-0.3-1.1-1.3-1.8-2.4-1.8l-22.8-0.5L37.8,2.8c-0.4-1.1-1.4-1.8-2.5-1.8c-1.1,0-2.1,0.7-2.5,1.8
			l-7.5,21.5L2.6,24.9c-1.1,0-2.1,0.8-2.4,1.8c-0.3,1.1,0,2.2,0.9,2.9l18.1,13.8l-6.5,21.8c-0.3,1.1,0.1,2.2,1,2.9
			c0.9,0.7,2.1,0.7,3,0l18.7-13l18.7,13c0.9,0.6,2.1,0.6,3,0c0.9-0.7,1.3-1.8,1-2.9l-6.5-21.8l18.1-13.8
			C70.6,28.9,70.9,27.7,70.6,26.7z"/>
	</g>
	<g>
		<path class="st0" d="M321.6,26.7c-0.3-1.1-1.3-1.8-2.4-1.8l-22.8-0.5l-7.5-21.5c-0.4-1.1-1.4-1.8-2.5-1.8s-2.1,0.7-2.5,1.8
			l-7.5,21.5l-22.8,0.5c-1.1,0-2.1,0.8-2.4,1.8c-0.3,1.1,0,2.2,0.9,2.9l18.1,13.8l-6.5,21.8c-0.3,1.1,0.1,2.2,1,2.9
			c0.9,0.7,2.1,0.7,3,0l18.7-13l18.7,13c0.9,0.6,2.1,0.6,3,0c0.9-0.7,1.3-1.8,1-2.9l-6.5-21.8l18.1-13.8
			C321.6,28.9,321.9,27.7,321.6,26.7z"/>
	</g>
	<g>
		<path class="st0" d="M405.3,26.7c-0.3-1.1-1.3-1.8-2.4-1.8l-22.8-0.5l-7.5-21.5c-0.4-1.1-1.4-1.8-2.5-1.8c-1.1,0-2.1,0.7-2.5,1.8
			L360,24.3l-22.8,0.5c-1.1,0-2.1,0.8-2.4,1.8c-0.3,1.1,0,2.2,0.9,2.9l18.1,13.8l-6.5,21.8c-0.3,1.1,0.1,2.2,1,2.9
			c0.9,0.7,2.1,0.7,3,0l18.7-13l18.7,13c0.9,0.6,2.1,0.6,3,0c0.9-0.7,1.3-1.8,1-2.9l-6.5-21.8l18.1-13.8
			C405.3,28.9,405.6,27.7,405.3,26.7z"/>
	</g>
	<g>
		<path class="st0" d="M237.9,26.7c-0.3-1.1-1.3-1.8-2.4-1.8l-22.8-0.5l-7.5-21.5c-0.4-1.1-1.4-1.8-2.5-1.8c-1.1,0-2.1,0.7-2.5,1.8
			l-7.5,21.5l-22.8,0.5c-1.1,0-2.1,0.8-2.4,1.8c-0.3,1.1,0,2.2,0.9,2.9l18.1,13.8L180,65.2c-0.3,1.1,0.1,2.2,1,2.9
			c0.9,0.7,2.1,0.7,3,0l18.7-13l18.7,13c0.9,0.6,2.1,0.6,3,0c0.9-0.7,1.3-1.8,1-2.9l-6.5-21.8L237,29.6
			C237.9,28.9,238.3,27.7,237.9,26.7z"/>
	</g>
</g>
</svg>
