<svg width="48" height="40" viewBox="0 0 48 40" fill="none" xmlns="http://www.w3.org/2000/svg">
<path d="M14 39C16.7614 39 19 36.7614 19 34C19 31.2386 16.7614 29 14 29C11.2386 29 9 31.2386 9 34C9 36.7614 11.2386 39 14 39Z" stroke="#505056" stroke-width="2" stroke-linecap="round" stroke-linejoin="round"/>
<path d="M36 39C38.7614 39 41 36.7614 41 34C41 31.2386 38.7614 29 36 29C33.2386 29 31 31.2386 31 34C31 36.7614 33.2386 39 36 39Z" stroke="#505056" stroke-width="2" stroke-linecap="round" stroke-linejoin="round"/>
<path d="M41 21H37L36 16" stroke="#505056" stroke-width="2" stroke-linecap="round" stroke-linejoin="round"/>
<path d="M31 34H19" stroke="#505056" stroke-width="2" stroke-linecap="round" stroke-linejoin="round"/>
<path d="M35 12H36.86C38.2 12 39.45 12.63 40.19 13.69L46.33 22.42C46.77 23.04 47 23.77 47 24.52V31.15C47 32.72 45.66 33.99 44 33.99H41" stroke="#505056" stroke-width="2" stroke-linecap="round" stroke-linejoin="round"/>
<path d="M3 29V32C3 33.1 3.9 34 5 34H9" stroke="#505056" stroke-width="2" stroke-linecap="round" stroke-linejoin="round"/>
<path d="M33 25H4" stroke="#505056" stroke-width="2" stroke-linecap="round" stroke-linejoin="round"/>
<path d="M6 1H29C30.1 1 31 1.9 31 3V21" stroke="#505056" stroke-width="2" stroke-linecap="round" stroke-linejoin="round"/>
<path d="M14 7H3" stroke="#505056" stroke-width="2" stroke-miterlimit="10" stroke-linecap="round"/>
<path d="M23 13H11" stroke="#505056" stroke-width="2" stroke-miterlimit="10" stroke-linecap="round"/>
<path d="M17 19H1" stroke="#505056" stroke-width="2" stroke-miterlimit="10" stroke-linecap="round"/>
<path d="M7 13H5" stroke="#505056" stroke-width="2" stroke-miterlimit="10" stroke-linecap="round"/>
</svg>
