<svg width="23" height="19" viewBox="0 0 23 19" fill="none" xmlns="http://www.w3.org/2000/svg">
<path d="M15.5493 0.551569V0.547607H16.5809L16.9578 0.622886C17.2091 0.671758 17.4372 0.735805 17.6422 0.815046C17.8472 0.894287 18.0456 0.986742 18.2373 1.09239C18.4291 1.19804 18.603 1.30569 18.7591 1.4153C18.9138 1.5236 19.0527 1.6385 19.1757 1.76C19.2973 1.88282 19.4871 1.91452 19.745 1.85509C20.0029 1.79565 20.2806 1.71311 20.5782 1.60746C20.8758 1.50181 21.17 1.38295 21.461 1.25087C21.7519 1.1188 21.9292 1.03494 21.9926 0.999282C22.0548 0.962316 22.0879 0.942505 22.0918 0.939851L22.0958 0.933908L22.1156 0.924003L22.1355 0.914098L22.1553 0.904192L22.1751 0.894287L22.1791 0.888344L22.185 0.884382L22.191 0.88042L22.195 0.874477L22.2148 0.868534L22.2346 0.864572L22.2307 0.894287L22.2247 0.924003L22.2148 0.953718L22.2049 0.983434L22.195 1.00324L22.185 1.02305L22.1751 1.05277C22.1685 1.07258 22.1619 1.09899 22.1553 1.13201C22.1487 1.16503 22.0859 1.29709 21.9668 1.52822C21.8478 1.75934 21.699 1.99376 21.5205 2.23148C21.3419 2.4692 21.1819 2.6488 21.0404 2.77032C20.8976 2.89314 20.803 2.97898 20.7567 3.02785C20.7105 3.07803 20.6543 3.12425 20.5881 3.16653L20.4889 3.2319L20.4691 3.24181L20.4492 3.25171L20.4453 3.25765L20.4393 3.26162L20.4334 3.26558L20.4294 3.27152L20.4096 3.28143L20.3897 3.29133L20.3858 3.29727L20.3798 3.30124L20.3739 3.3052L20.3699 3.31114L20.3659 3.31708L20.36 3.32105L20.354 3.32501L20.3501 3.33095H20.4492L21.0047 3.21209C21.375 3.13285 21.7288 3.03711 22.066 2.92484L22.6016 2.74655L22.6611 2.72674L22.6909 2.71683L22.7107 2.70693L22.7306 2.69702L22.7504 2.68712L22.7703 2.67721L22.8099 2.67127L22.8496 2.66731V2.70693L22.8397 2.71089L22.8298 2.71683L22.8258 2.72278L22.8199 2.72674L22.8139 2.7307L22.8099 2.73664L22.806 2.74259L22.8 2.74655L22.7941 2.75051L22.7901 2.75645L22.7861 2.7624L22.7802 2.76636L22.7703 2.78617L22.7603 2.80598L22.7544 2.80994C22.7517 2.8139 22.6678 2.92615 22.5024 3.14672C22.3371 3.36859 22.2479 3.48084 22.2346 3.48349C22.2214 3.48745 22.2029 3.50726 22.1791 3.54292C22.1566 3.57989 22.0164 3.72716 21.7585 3.98469C21.5006 4.24222 21.2481 4.47135 21.0008 4.67211C20.7521 4.87417 20.6265 5.12245 20.6238 5.41697C20.6199 5.71017 20.6047 6.04167 20.5782 6.41145C20.5518 6.78125 20.5022 7.18074 20.4294 7.60997C20.3567 8.0392 20.2443 8.52455 20.0922 9.06603C19.9401 9.6075 19.7549 10.1358 19.5367 10.6508C19.3185 11.1659 19.0904 11.6281 18.8523 12.0376C18.6143 12.447 18.396 12.7937 18.1977 13.0776C17.9993 13.3615 17.7976 13.629 17.5926 13.8799C17.3876 14.1309 17.1284 14.4135 16.815 14.7278C16.5002 15.0408 16.3283 15.2125 16.2992 15.2429C16.2688 15.2719 16.1392 15.3802 15.9104 15.5678C15.6829 15.7566 15.4382 15.9455 15.1764 16.1343C14.9159 16.3219 14.6765 16.4784 14.4583 16.6038C14.2401 16.7293 13.9769 16.8726 13.6687 17.0337C13.3619 17.1962 13.03 17.3467 12.6729 17.4854C12.3158 17.6241 11.9389 17.7528 11.5421 17.8717C11.1454 17.9906 10.7618 18.083 10.3915 18.149C10.0212 18.2151 9.60134 18.2712 9.13185 18.3174L8.42761 18.3868V18.3967H7.13816V18.3868L6.96954 18.3769C6.85714 18.3703 6.76455 18.3636 6.69181 18.357C6.61908 18.3504 6.34465 18.3141 5.86855 18.2481C5.39244 18.1821 5.01884 18.116 4.74772 18.05C4.47661 17.984 4.07323 17.8585 3.53762 17.6736C3.002 17.4887 2.54375 17.3018 2.16286 17.113C1.78331 16.9254 1.54526 16.8066 1.44871 16.7564C1.35349 16.7075 1.24636 16.6468 1.12734 16.5741L0.948798 16.4652L0.94485 16.4592L0.938879 16.4553L0.932928 16.4513L0.92896 16.4454L0.909122 16.4354L0.889285 16.4255L0.885337 16.4196L0.879366 16.4156L0.873415 16.4117L0.869447 16.4057L0.865499 16.3998L0.859528 16.3958H0.849609V16.3562L0.869447 16.3602L0.889285 16.3661L0.978554 16.376C1.03807 16.3826 1.20008 16.3925 1.46458 16.4057C1.72909 16.4189 2.01011 16.4189 2.30768 16.4057C2.60524 16.3925 2.90944 16.3628 3.22021 16.3166C3.53101 16.2704 3.89801 16.1911 4.32121 16.0789C4.74442 15.9666 5.13324 15.8332 5.48768 15.6787C5.84079 15.5229 6.09206 15.4066 6.24151 15.33C6.38962 15.2548 6.61577 15.1148 6.91994 14.9101L7.37621 14.603L7.38018 14.5971L7.38613 14.5931L7.3921 14.5891L7.39605 14.5832L7.40002 14.5772L7.40597 14.5733L7.41194 14.5693L7.41588 14.5634L7.43572 14.5574L7.45556 14.5535L7.45953 14.5337L7.46548 14.5139L7.47145 14.5099L7.4754 14.5039L7.3167 14.494C7.2109 14.4874 7.1084 14.4808 7.00921 14.4742C6.91002 14.4676 6.75464 14.4379 6.54303 14.3851C6.33144 14.3323 6.1033 14.253 5.85863 14.1474C5.61397 14.0417 5.37592 13.9162 5.14447 13.771C4.91304 13.6257 4.74573 13.5048 4.64258 13.4084C4.54075 13.3133 4.40849 13.1786 4.24582 13.0043C4.08448 12.8287 3.94429 12.6484 3.82526 12.4635C3.70624 12.2786 3.59251 12.0653 3.48407 11.8236L3.3194 11.4631L3.30948 11.4334L3.29956 11.4036L3.29361 11.3838L3.28965 11.364L3.3194 11.368L3.34916 11.3739L3.56737 11.4036C3.71286 11.4234 3.941 11.43 4.25177 11.4234C4.56257 11.4169 4.77747 11.4036 4.8965 11.3838C5.01552 11.364 5.08827 11.3508 5.11471 11.3442L5.15439 11.3343L5.20398 11.3244L5.25358 11.3145L5.25754 11.3086L5.2635 11.3046L5.26947 11.3006L5.27341 11.2947L5.23374 11.2848L5.19406 11.2749L5.15439 11.265L5.11471 11.2551L5.07504 11.2452C5.04859 11.2386 5.00231 11.2253 4.93617 11.2055C4.87005 11.1857 4.69152 11.1131 4.40056 10.9876C4.10962 10.8622 3.87817 10.74 3.70624 10.6211C3.53388 10.5019 3.36953 10.3716 3.21426 10.2309C3.05953 10.0882 2.8896 9.90466 2.70443 9.68015C2.51929 9.45564 2.35398 9.19479 2.20849 8.89764C2.06302 8.60048 1.95391 8.31654 1.88117 8.0458C1.80872 7.77664 1.76092 7.50147 1.73836 7.22367L1.70263 6.80765L1.72247 6.81162L1.74231 6.81756L1.76214 6.82747L1.78198 6.83737L1.80182 6.84728L1.82166 6.85718L2.12914 6.99585C2.33414 7.08831 2.58872 7.16755 2.89289 7.23358C3.19708 7.2996 3.37892 7.33594 3.43843 7.34253L3.5277 7.35244H3.70624L3.70229 7.34649L3.69632 7.34253L3.69037 7.33857L3.6864 7.33263L3.68245 7.32668L3.67648 7.32272L3.67053 7.31876L3.66656 7.31282L3.64672 7.30291L3.62689 7.29301L3.62294 7.28706L3.61697 7.2831L3.61102 7.27914L3.60705 7.2732L3.58721 7.26329L3.56737 7.25339L3.56343 7.24744C3.55946 7.24479 3.50258 7.20253 3.3928 7.12066C3.28435 7.03745 3.17062 6.92982 3.05159 6.79775C2.93257 6.66567 2.81354 6.527 2.69451 6.38173C2.57527 6.23613 2.46906 6.08035 2.37711 5.91619C2.28455 5.75111 2.18667 5.5411 2.08351 5.28623C1.98169 5.03265 1.90432 4.7771 1.85141 4.51957C1.79853 4.26203 1.76877 4.00781 1.76214 3.75687C1.75554 3.50594 1.76214 3.29133 1.78198 3.11304C1.80182 2.93475 1.84149 2.73333 1.90101 2.50882C1.96052 2.28431 2.0465 2.04659 2.1589 1.79565L2.32752 1.41926L2.33744 1.38954L2.34736 1.35983L2.35333 1.35587L2.35727 1.34992L2.36124 1.34398L2.36719 1.34002L2.37316 1.34398L2.37711 1.34992L2.38108 1.35587L2.38703 1.35983L2.393 1.36379L2.39695 1.36973L2.40092 1.37568L2.40687 1.37964L2.41679 1.39945L2.42671 1.41926L2.43268 1.42322L2.43662 1.42916L2.70443 1.72632C2.88297 1.92442 3.09458 2.14564 3.33924 2.38996C3.58392 2.63428 3.71947 2.76107 3.74591 2.77032C3.77238 2.78088 3.80543 2.81125 3.8451 2.86145C3.88478 2.91032 4.01703 3.0272 4.24185 3.21209C4.46669 3.39698 4.76095 3.6116 5.12463 3.85592C5.48834 4.10024 5.8917 4.34128 6.33473 4.579C6.77779 4.81672 7.25389 5.03133 7.76304 5.22283C8.27222 5.41434 8.6293 5.5398 8.83428 5.59923C9.03928 5.65866 9.38974 5.73459 9.88568 5.82705C10.3816 5.9195 10.7552 5.97893 11.0065 6.00534C11.2578 6.03175 11.4297 6.04694 11.5223 6.0509L11.6612 6.05486L11.6572 6.02515L11.6512 5.99543L11.6116 5.74781C11.5851 5.58273 11.5719 5.3516 11.5719 5.05445C11.5719 4.75729 11.595 4.48326 11.6413 4.23232C11.6876 3.98138 11.757 3.72716 11.8496 3.46962C11.9422 3.21209 12.0328 3.00539 12.1214 2.84956C12.2113 2.69504 12.329 2.51873 12.4745 2.32063C12.62 2.12252 12.8084 1.91782 13.0399 1.70651C13.2713 1.49519 13.5358 1.30699 13.8334 1.14192C14.1309 0.976837 14.4054 0.851358 14.6566 0.76552C14.9079 0.679683 15.1195 0.62354 15.2914 0.597133C15.4634 0.570726 15.5493 0.555532 15.5493 0.551569Z" fill="#2264D1"/>
</svg>
