<svg width="18" height="19" viewBox="0 0 18 19" fill="none" xmlns="http://www.w3.org/2000/svg">
<path fill-rule="evenodd" clip-rule="evenodd" d="M12.5725 1.52447C11.6064 0.541818 10.243 0 8.65213 0C7.06125 0 5.69785 0.541818 4.73179 1.52447C3.76648 2.50636 3.23656 3.88891 3.23656 5.5C3.23656 7.66898 4.18094 9.06695 5.34972 9.90615C5.57687 10.0692 5.81162 10.2107 6.04844 10.3327C4.74227 10.6916 3.6817 11.3173 2.81821 12.0934C1.45284 13.3205 0.606588 14.8993 0.0364552 16.313C-0.0668278 16.5691 0.0570564 16.8604 0.313158 16.9637C0.569258 17.067 0.860596 16.9431 0.963877 16.687C1.50654 15.3414 2.28158 13.9202 3.48666 12.8371C4.67962 11.765 6.32021 11 8.65213 11C10.8321 11 12.4059 11.6685 13.5741 12.6279C14.7521 13.5953 15.5454 14.8816 16.1138 16.1532C16.4931 17.0016 15.8275 18 14.7828 18H3.245C2.96886 18 2.745 18.2239 2.745 18.5C2.745 18.7761 2.96886 19 3.245 19H14.7828C16.435 19 17.748 17.3588 17.0268 15.7452C16.4233 14.3952 15.5505 12.9569 14.2088 11.8551C13.4124 11.2011 12.4604 10.6737 11.3204 10.3507C11.9301 10.0136 12.4313 9.56618 12.8301 9.0591C13.693 7.96202 14.0677 6.60016 14.0677 5.5C14.0677 3.88891 13.5378 2.50636 12.5725 1.52447ZM11.8594 2.22553C12.6145 2.99364 13.0677 4.11109 13.0677 5.5C13.0677 6.39984 12.7543 7.53798 12.0441 8.4409C11.3476 9.32647 10.2608 10 8.65213 10C8.00151 10 6.87905 9.77314 5.93296 9.09385C5.01263 8.43305 4.23656 7.33102 4.23656 5.5C4.23656 4.11109 4.68975 2.99364 5.44489 2.22553C6.19928 1.45818 7.29367 1 8.65213 1C10.0106 1 11.105 1.45818 11.8594 2.22553Z" fill="black"/>
</svg>
